<svg width="120" height="30" viewBox="0 0 120 30" xmlns="http://www.w3.org/2000/svg">
  <!-- Cisco Bridge Icon -->
  <g transform="translate(5, 8)">
    <!-- Bridge structure - more detailed -->
    <rect x="0" y="8" width="20" height="1.5" fill="#1BA0D7"/>
    <rect x="1" y="6.5" width="18" height="1.5" fill="#1BA0D7"/>
    <rect x="2" y="5" width="16" height="1.5" fill="#1BA0D7"/>
    <rect x="3" y="3.5" width="14" height="1.5" fill="#1BA0D7"/>
    <rect x="4" y="2" width="12" height="1.5" fill="#1BA0D7"/>
    <rect x="5" y="0.5" width="10" height="1.5" fill="#1BA0D7"/>
    <rect x="6" y="-1" width="8" height="1.5" fill="#1BA0D7"/>
    <rect x="7" y="-2.5" width="6" height="1.5" fill="#1BA0D7"/>
    <rect x="8" y="-4" width="4" height="1.5" fill="#1BA0D7"/>
    <rect x="9" y="-5.5" width="2" height="1.5" fill="#1BA0D7"/>
    
    <!-- Support pillars -->
    <rect x="2" y="9.5" width="0.8" height="4" fill="#1BA0D7"/>
    <rect x="5" y="9.5" width="0.8" height="4" fill="#1BA0D7"/>
    <rect x="8" y="9.5" width="0.8" height="4" fill="#1BA0D7"/>
    <rect x="11" y="9.5" width="0.8" height="4" fill="#1BA0D7"/>
    <rect x="14" y="9.5" width="0.8" height="4" fill="#1BA0D7"/>
    <rect x="17" y="9.5" width="0.8" height="4" fill="#1BA0D7"/>
  </g>
  
  <!-- Cisco Text -->
  <text x="35" y="20" font-family="Arial, sans-serif" font-size="18" font-weight="bold" fill="#1BA0D7">Cisco</text>
</svg>
