<svg width="80" height="30" viewBox="0 0 80 30" xmlns="http://www.w3.org/2000/svg">
  <!-- Cisco Bridge Icon -->
  <g transform="translate(5, 10)">
    <!-- Bridge structure -->
    <rect x="0" y="5" width="20" height="2" fill="#1BA0D7"/>
    <rect x="1" y="3" width="18" height="2" fill="#1BA0D7"/>
    <rect x="2" y="1" width="16" height="2" fill="#1BA0D7"/>
    <rect x="3" y="-1" width="14" height="2" fill="#1BA0D7"/>
    <rect x="4" y="-3" width="12" height="2" fill="#1BA0D7"/>
    <rect x="5" y="-5" width="10" height="2" fill="#1BA0D7"/>
    <rect x="6" y="-7" width="8" height="2" fill="#1BA0D7"/>
    <rect x="7" y="-9" width="6" height="2" fill="#1BA0D7"/>
    <rect x="8" y="-11" width="4" height="2" fill="#1BA0D7"/>
    <rect x="9" y="-13" width="2" height="2" fill="#1BA0D7"/>
    
    <!-- Support pillars -->
    <rect x="2" y="7" width="1" height="3" fill="#1BA0D7"/>
    <rect x="5" y="7" width="1" height="3" fill="#1BA0D7"/>
    <rect x="8" y="7" width="1" height="3" fill="#1BA0D7"/>
    <rect x="11" y="7" width="1" height="3" fill="#1BA0D7"/>
    <rect x="14" y="7" width="1" height="3" fill="#1BA0D7"/>
    <rect x="17" y="7" width="1" height="3" fill="#1BA0D7"/>
  </g>
  
  <!-- Cisco Text -->
  <text x="35" y="20" font-family="Arial, sans-serif" font-size="18" font-weight="bold" fill="#1BA0D7">Cisco</text>
</svg>
